<?xml version="1.0"?>
<svg xmlns="http://www.w3.org/2000/svg" id="Layer_1" data-name="Layer 1" viewBox="0 0 128 128"><title/><path d="M126,83.391h-2a2,2,0,0,0,0,4h2a2,2,0,0,0,0-4Z"/><path d="M122.10547,80.18011a2.01952,2.01952,0,0,0,2.68359-.89453l1-2a2.00023,2.00023,0,0,0-3.57812-1.78906l-1,2A2,2,0,0,0,122.10547,80.18011Z"/><path d="M124.78906,91.4964a2.00023,2.00023,0,0,0-3.57812,1.78906l1,1.99994a2.03758,2.03758,0,0,0,2.68359.89453,1.99985,1.99985,0,0,0,.89453-2.68353Z"/><path d="M110.98242,75.26123,111,62.29352a3.2848,3.2848,0,0,0-5.6416-2.29388c-3.18677,3.29059-11.1861,11.54681-28.84985,14.90948A3.961,3.961,0,0,0,74,73.99945H62a3.99761,3.99761,0,0,0-3.63171,2.34583c-1.42407-.01886-2.87329-.05542-4.382-.13489a4.57213,4.57213,0,0,0-3.40723,1.27832,5.058,5.058,0,0,0-1.56836,3.64935L49,89.14a5.04411,5.04411,0,0,0,1.59961,3.69336A4.45213,4.45213,0,0,0,54.01172,94.053c1.533-.11438,3.00525-.17981,4.45148-.22485A3.98839,3.98839,0,0,0,62,95.99927h.60834c.49591,1.01813.99524,2.07025,1.45807,3.08008,1.90527,3.72754.9668,8.72455.47559,10.69916a2.60853,2.60853,0,0,0,.76953,2.58,2.50689,2.50689,0,0,0,2.4541.50977l9.52539-3.11816a2.61192,2.61192,0,0,0,1.48926-1.41895,2.67864,2.67864,0,0,0,.05762-1.97748l-2.57812-8.29a16.7418,16.7418,0,0,1-.623-2.42322,3.98889,3.98889,0,0,0,.92694-.59644c17.3468,3.21753,25.47546,11.59967,28.72137,14.95117a3.33455,3.33455,0,0,0,3.59283.7627,3.281,3.281,0,0,0,2.06055-3.04877l.01758-12.96466a9.98874,9.98874,0,0,0,.02637-19.48328ZM58,89.84735c-1.39581.04535-2.81183.10706-4.28625.21741-.44989.03351-.71423-.5448-.71375-.91992,0-.00049.01074-7.99487.01074-8.00189.00055-.40393.2915-.94434.76563-.93842,1.43353.07556,2.83423.10815,4.22363.12616Zm10.91992,18.436c.48535-3.123.58691-7.34851-1.25391-10.94617-.15-.32764-.36536-.79346-.62122-1.33789H71.645a20.04441,20.04441,0,0,0,.80817,3.29492l2.21094,7.10834Zm38.02051-2.31244C102.85785,101.89374,94.24084,94.42163,78,91.25134V78.629c11.67914-2.39233,21.38879-7.26208,28.998-14.61481Z"/><path d="M100.20978,110.59485a44.47256,44.47256,0,0,0-19.09943-10.40149l1.52344,4.89746a6.643,6.643,0,0,1-2.91016,7.90894l18.98633.00018a5.25654,5.25654,0,0,0,2.99976-.94031c-.42975-.43585-.92987-.9278-1.50073-1.45844Z"/><path d="M60.50488,100.89941c-.02637-.05078-.38477-.8252-.54395-1.165a7.94187,7.94187,0,0,1-3.34277-1.832c-.81445.03809-1.57227.084-2.30957.13965-.2041.01563-.42676.02441-.64746.02441A8.47682,8.47682,0,0,1,48,95.86792v3.76892a1.41736,1.41736,0,0,1-1.4173,1.41736H35.4173A1.41736,1.41736,0,0,1,34,99.63684V88.4715a1.41731,1.41731,0,0,1,1.4173-1.4173h9.58551l.00793-5.92236a8.99683,8.99683,0,0,1,.25659-2.07764h-9.85A1.41736,1.41736,0,0,1,34,77.63684V66.4715a1.41731,1.41731,0,0,1,1.4173-1.4173H46.5827A1.41731,1.41731,0,0,1,48,66.4715V74.436a8.58569,8.58569,0,0,1,5.75488-2.23187c.1416,0,.28516.00391.42871.01074q.87149.046,1.81641.07526V66.4715a1.41731,1.41731,0,0,1,1.4173-1.4173H68.5827A1.41731,1.41731,0,0,1,70,66.4715V69.999h4a7.91142,7.91142,0,0,1,3.21191.68848c.272-.05786.52136-.12549.78809-.18573V66.4715a1.41731,1.41731,0,0,1,1.4173-1.4173H90.5827a1.40782,1.40782,0,0,1,1.06543.49182,41.80448,41.80448,0,0,0,10.83722-8.32922A7.21992,7.21992,0,0,1,104,56.03168V24.28607a5.29388,5.29388,0,0,0-5.29-5.28613H94v-2a2,2,0,0,0-4,0v2H86v-2a2,2,0,0,0-4,0v2H78v-2a2,2,0,0,0-4,0v2H70v-2a2,2,0,0,0-4,0v2H62v-2a2,2,0,0,0-4,0v2H54v-2a2,2,0,0,0-4,0v2H46v-2a2,2,0,0,0-4,0v2H38v-2a2,2,0,0,0-4,0v2H30v-2a2,2,0,0,0-4,0v2H22v-2a2,2,0,0,0-4,0v2H14v-2a2,2,0,0,0-4,0v2H5.29A5.29388,5.29388,0,0,0,0,24.28607v83.427a5.29386,5.29386,0,0,0,5.29,5.28607l55.69794.00049a6.62937,6.62937,0,0,1-.32684-4.19006C61.27539,106.33887,61.55762,102.96094,60.50488,100.89941ZM48,55.63684a1.41736,1.41736,0,0,1-1.4173,1.41736H35.4173A1.41736,1.41736,0,0,1,34,55.63684V44.4715a1.41731,1.41731,0,0,1,1.4173-1.4173H46.5827A1.41731,1.41731,0,0,1,48,44.4715Zm22,0a1.41736,1.41736,0,0,1-1.4173,1.41736H57.4173A1.41736,1.41736,0,0,1,56,55.63684V44.4715a1.41731,1.41731,0,0,1,1.4173-1.4173H68.5827A1.41731,1.41731,0,0,1,70,44.4715Zm22,0a1.41736,1.41736,0,0,1-1.4173,1.41736H79.4173A1.41736,1.41736,0,0,1,78,55.63684V44.4715a1.41731,1.41731,0,0,1,1.4173-1.4173H90.5827A1.41731,1.41731,0,0,1,92,44.4715ZM4,31.05353V24.28607a1.28994,1.28994,0,0,1,1.29-1.28619H10v2a2,2,0,0,0,4,0v-2h4v2a2,2,0,0,0,4,0v-2h4v2a2,2,0,0,0,4,0v-2h4v2a2,2,0,0,0,4,0v-2h4v2a2,2,0,0,0,4,0v-2h4v2a2,2,0,0,0,4,0v-2h4v2a2,2,0,0,0,4,0v-2h4v2a2,2,0,0,0,4,0v-2h4v2a2,2,0,0,0,4,0v-2h4v2a2,2,0,0,0,4,0v-2h4v2a2,2,0,0,0,4,0v-2h4.71A1.28994,1.28994,0,0,1,100,24.28607v6.76746ZM26,99.63684a1.41736,1.41736,0,0,1-1.4173,1.41736H13.4173A1.41736,1.41736,0,0,1,12,99.63684V88.4715a1.41731,1.41731,0,0,1,1.4173-1.4173H24.5827A1.41731,1.41731,0,0,1,26,88.4715Zm0-22a1.41736,1.41736,0,0,1-1.4173,1.41736H13.4173A1.41736,1.41736,0,0,1,12,77.63684V66.4715a1.41731,1.41731,0,0,1,1.4173-1.4173H24.5827A1.41731,1.41731,0,0,1,26,66.4715Zm0-22a1.41736,1.41736,0,0,1-1.4173,1.41736H13.4173A1.41736,1.41736,0,0,1,12,55.63684V44.4715a1.41731,1.41731,0,0,1,1.4173-1.4173H24.5827A1.41731,1.41731,0,0,1,26,44.4715Z"/></svg>
